<svg width="24" height="24" viewBox="0 0 24 24" fill="none" xmlns="http://www.w3.org/2000/svg">
<path d="M18 14.58C18.024 14.532 18.038 14.475 18.038 14.415C18.038 14.355 18.024 14.298 17.999 14.248L17.52 13.55C17.511 13.537 17.506 13.522 17.506 13.505C17.506 13.488 17.511 13.473 17.52 13.46L18 12.76C18.024 12.712 18.038 12.655 18.038 12.595C18.038 12.535 18.024 12.478 17.999 12.428C17.959 12.318 17.872 12.232 17.763 12.191L16.94 11.89C16.909 11.879 16.886 11.853 16.88 11.821V10.98C16.873 10.855 16.808 10.747 16.711 10.681C16.645 10.636 16.566 10.61 16.48 10.61C16.476 10.61 16.473 10.61 16.469 10.61H16.31L15.46 10.83C15.45 10.834 15.438 10.837 15.425 10.837C15.412 10.837 15.4 10.834 15.389 10.83L14.84 10.18C14.761 10.095 14.649 10.043 14.525 10.043C14.401 10.043 14.289 10.096 14.21 10.18L13.66 10.83C13.65 10.834 13.638 10.837 13.625 10.837C13.612 10.837 13.6 10.834 13.589 10.83H13.59L12.69 10.6H12.59C12.588 10.6 12.585 10.6 12.582 10.6C12.495 10.6 12.415 10.626 12.348 10.671C12.252 10.737 12.187 10.845 12.18 10.969V11.81C12.174 11.843 12.151 11.869 12.121 11.88L11.3 12.18C11.166 12.203 11.055 12.29 11.001 12.408C10.976 12.459 10.962 12.515 10.962 12.575C10.962 12.635 10.976 12.692 11.001 12.742L11.48 13.44C11.489 13.453 11.494 13.468 11.494 13.485C11.494 13.502 11.489 13.517 11.48 13.53L11 14.23C10.976 14.278 10.962 14.335 10.962 14.395C10.962 14.455 10.976 14.512 11.001 14.562C11.041 14.672 11.128 14.758 11.237 14.799L12.06 15.1C12.091 15.111 12.114 15.137 12.12 15.169V16.01C12.127 16.135 12.192 16.243 12.289 16.309C12.356 16.354 12.436 16.38 12.523 16.38C12.526 16.38 12.528 16.38 12.531 16.38H12.691L13.001 16.31V20L14.531 18L16.001 20V16.31L16.311 16.39H16.421C16.423 16.39 16.426 16.39 16.429 16.39C16.516 16.39 16.596 16.364 16.663 16.319C16.759 16.253 16.824 16.145 16.831 16.021V15.18C16.837 15.147 16.86 15.121 16.89 15.11L17.711 14.81C17.841 14.784 17.947 14.698 18 14.583V14.58Z" fill="#1C2E45" fill-opacity="0.6"/>
<path d="M4 5V17H12L11.89 16.95C11.608 16.755 11.421 16.442 11.4 16.083V16H5V6H19V16H17.57V16.08C17.549 16.441 17.362 16.755 17.084 16.948L17 17H20V5H4Z" fill="#1C2E45" fill-opacity="0.6"/>
<path d="M11.43 10.91C11.437 10.533 11.628 10.202 11.916 10.002C11.932 9.99697 11.946 9.99597 11.96 9.99597C11.974 9.99597 11.988 9.99697 12.001 9.99997H7V11H11.43V10.91Z" fill="#1C2E45" fill-opacity="0.6"/>
<path d="M10.42 12H7V13H10.36C10.286 12.864 10.243 12.702 10.243 12.53C10.243 12.4 10.268 12.277 10.313 12.163C10.327 12.1 10.367 12.041 10.42 12Z" fill="#1C2E45" fill-opacity="0.6"/>
<path d="M7 8H17V9H7V8Z" fill="#1C2E45" fill-opacity="0.6"/>
</svg>
